<svg width="50" height="50" viewBox="0 0 50 50" fill="none" xmlns="http://www.w3.org/2000/svg">
<g clip-path="url(#clip0_419_253)">
<path d="M25 50C38.8071 50 50 38.8071 50 25C50 11.1929 38.8071 0 25 0C11.1929 0 0 11.1929 0 25C0 38.8071 11.1929 50 25 50Z" fill="#D80027"/>
<path d="M23.9764 20.4283L26.0277 23.255L29.3496 22.1779L27.2951 25.0021L29.3461 27.8286L26.0253 26.7474L23.9709 29.5716L23.9731 26.0793L20.6522 24.9981L23.9742 23.9209L23.9764 20.4283Z" fill="#F0F0F0"/>
<path d="M18.3783 32.0653C14.4764 32.0653 11.3131 28.902 11.3131 25C11.3131 21.0981 14.4764 17.9348 18.3783 17.9348C19.5949 17.9348 20.7396 18.2425 21.7391 18.784C20.1712 17.2506 18.027 16.3043 15.6609 16.3043C10.8584 16.3043 6.96533 20.1975 6.96533 24.9999C6.96533 29.8024 10.8585 33.6955 15.6609 33.6955C18.0271 33.6955 20.1713 32.7491 21.7391 31.2158C20.7396 31.7575 19.5949 32.0653 18.3783 32.0653V32.0653Z" fill="#F0F0F0"/>
</g>
<defs>
<clipPath id="clip0_419_253">
<rect width="50" height="50" fill="white"/>
</clipPath>
</defs>
</svg>
